<svg xmlns="http://www.w3.org/2000/svg" viewBox="0 0 10 10" id="Music-Headphones-Human--Streamline-Pixel" height="10" width="10">
  <desc>
    Music Headphones Human Streamline Icon: https://streamlinehq.com
  </desc>
  <title>music-headphones-human</title>
  <g>
    <path d="M9.2859375 4.0484375h0.475v1.903125h-0.475Z" fill="#000000" stroke-width="0.3125"></path>
    <path d="m3.0953125 4.0484375 0.475 0 0 -0.478125 0.478125 0 0 -0.475 1.903125 0 0 0.475 0.478125 0 0 -0.475 1.428125 0 0 0.475 0.475 0 0 3.8093749999999997 0.478125 0 0 -0.95 0.475 0 0 -0.478125 -0.475 0 0 -1.903125 0.475 0 0 -0.478125 -0.475 0 0 -1.903125 -0.478125 0 0 0.475 -0.475 0 0 -0.475 -0.953125 0 0 -0.478125 -3.334375 0 0 0.478125 -0.475 0 0 0.475 -0.475 0 0 0.953125 -0.478125 0 0 -1.428125 -0.475 0 0 1.428125 -0.475 0 0 0.475 1.903125 0 0 0.478125z" fill="#000000" stroke-width="0.3125"></path>
    <path d="M7.8578125 7.379687499999999h0.475v0.478125h-0.475Z" fill="#000000" stroke-width="0.3125"></path>
    <path d="M7.8578125 1.1890625000000001h0.475v0.478125h-0.475Z" fill="#000000" stroke-width="0.3125"></path>
    <path d="M7.379687499999999 6.4296875h0.478125v0.475h-0.478125Z" fill="#000000" stroke-width="0.3125"></path>
    <path d="M7.379687499999999 4.9984375h0.478125v0.953125h-0.478125Z" fill="#000000" stroke-width="0.3125"></path>
    <path d="M7.379687499999999 0.7140625h0.478125v0.475h-0.478125Z" fill="#000000" stroke-width="0.3125"></path>
    <path d="M3.5703125 7.8578125V8.8125h-0.95v0.475h-0.953125v0.475h7.6187499999999995v-0.475h-0.953125V8.8125h-0.953125v-0.478125h0.478125v-0.475Zm3.334375 1.428125h-1.903125V8.8125h-0.953125v-0.478125H6.90625Z" fill="#000000" stroke-width="0.3125"></path>
    <path d="M5.9515625000000005 6.9046875h1.428125v0.475h-1.428125Z" fill="#000000" stroke-width="0.3125"></path>
    <path d="M5.4765625 6.4296875h0.475v0.475h-0.475Z" fill="#000000" stroke-width="0.3125"></path>
    <path d="M5.0015624999999995 4.9984375h0.475v0.953125h-0.475Z" fill="#000000" stroke-width="0.3125"></path>
    <path d="M5.0015624999999995 3.5703125h0.95v0.478125h-0.95Z" fill="#000000" stroke-width="0.3125"></path>
    <path d="M3.5703125 4.0484375h0.478125v1.903125h-0.478125Z" fill="#000000" stroke-width="0.3125"></path>
    <path d="M3.0953125 0.2390625h4.284375000000001v0.475H3.0953125Z" fill="#000000" stroke-width="0.3125"></path>
    <path d="M3.0953125 7.379687499999999h0.475v0.478125h-0.475Z" fill="#000000" stroke-width="0.3125"></path>
    <path d="M3.0953125 5.9515625000000005h0.475v0.478125h-0.475Z" fill="#000000" stroke-width="0.3125"></path>
    <path d="m1.1921875 6.4296875 0 0.475 1.428125 0 0 0.475 0.475 0 0 -0.95 -1.903125 0z" fill="#000000" stroke-width="0.3125"></path>
    <path d="M2.6203125 0.7140625h0.475v0.475h-0.475Z" fill="#000000" stroke-width="0.3125"></path>
    <path d="M2.1421875000000004 1.1890625000000001h0.478125v0.478125h-0.478125Z" fill="#000000" stroke-width="0.3125"></path>
    <path d="M1.6671875 4.0484375h0.475v0.475h-0.475Z" fill="#000000" stroke-width="0.3125"></path>
    <path d="M1.1921875 4.5234375h0.475v0.953125h-0.475Z" fill="#000000" stroke-width="0.3125"></path>
    <path d="M0.7140625 5.9515625000000005h0.478125v0.478125h-0.478125Z" fill="#000000" stroke-width="0.3125"></path>
    <path d="M0.7140625 3.5703125h0.478125v0.478125h-0.478125Z" fill="#000000" stroke-width="0.3125"></path>
    <path d="M0.2390625 4.0484375h0.475v1.903125H0.2390625Z" fill="#000000" stroke-width="0.3125"></path>
  </g>
</svg>